<svg xmlns="http://www.w3.org/2000/svg" viewBox="0 0 1200 700" role="img" aria-label="活动室"><defs><pattern id="dots" width="8" height="8" patternUnits="userSpaceOnUse"><circle cx="1" cy="1" r="1" fill="#111" opacity=".18"/></pattern><pattern id="hatch" width="9" height="9" patternUnits="userSpaceOnUse" patternTransform="rotate(24)"><line x1="0" y1="0" x2="0" y2="9" stroke="#111" stroke-width="1" opacity=".23"/></pattern><linearGradient id="fade" x1="0" y1="0" x2="0" y2="1"><stop offset="0" stop-color="#f2f2ef"/><stop offset="1" stop-color="#c8c8c2"/></linearGradient><filter id="rough"><feTurbulence baseFrequency="0.9" numOctaves="2" seed="3" type="fractalNoise" result="n"/><feDisplacementMap in="SourceGraphic" in2="n" scale="0.7"/></filter></defs><rect width="1200" height="700" fill="#e9e9e4"/><rect x="20" y="20" width="1160" height="660" fill="none" stroke="#111" stroke-width="2" opacity=".6"/><polygon points="95,590 1105,590 980,690 220,690" fill="#d7d7d2" stroke="#111" stroke-width="2"/><polygon points="95,130 1105,130 1105,590 95,590" fill="#efefe9" stroke="#111" stroke-width="2"/><rect x="110" y="160" width="300" height="210" fill="#bfc1be" stroke="#111" stroke-width="5"/><line x1="260" y1="160" x2="260" y2="370" stroke="#111" stroke-width="3"/><line x1="110" y1="265" x2="410" y2="265" stroke="#111" stroke-width="3"/><rect x="780" y="180" width="250" height="390" fill="#d6d6d1" stroke="#111" stroke-width="5"/><rect x="825" y="235" width="160" height="95" fill="#b7bab7" stroke="#111" stroke-width="3"/><rect x="430" y="390" width="350" height="95" fill="#bebebb" stroke="#111" stroke-width="4"/><line x1="465" y1="485" x2="455" y2="620" stroke="#111" stroke-width="6"/><line x1="745" y1="485" x2="755" y2="620" stroke="#111" stroke-width="6"/><path d="M95 515 Q260 500 390 530 T690 520 T1105 505 L1105 590 L95 590 Z" fill="url(#dots)" opacity=".8"/><path d="M180 130 Q230 210 180 310 T225 460" fill="none" stroke="#333" stroke-width="9" opacity=".25"/><path d="M605,287 l13,31 l-4,14" fill="none" stroke="#111" stroke-width="1.2" opacity=".5"/><path d="M510,155 l3,25 l-7,30" fill="none" stroke="#111" stroke-width="1.2" opacity=".5"/><path d="M949,385 l18,17 l2,10" fill="none" stroke="#111" stroke-width="1.2" opacity=".5"/><path d="M797,469 l-11,24 l-4,15" fill="none" stroke="#111" stroke-width="1.2" opacity=".5"/><path d="M467,257 l-17,28 l11,16" fill="none" stroke="#111" stroke-width="1.2" opacity=".5"/><path d="M196,412 l1,31 l-3,12" fill="none" stroke="#111" stroke-width="1.2" opacity=".5"/><path d="M139,181 l12,17 l-13,23" fill="none" stroke="#111" stroke-width="1.2" opacity=".5"/><path d="M574,207 l7,14 l2,20" fill="none" stroke="#111" stroke-width="1.2" opacity=".5"/><path d="M1023,468 l15,15 l7,11" fill="none" stroke="#111" stroke-width="1.2" opacity=".5"/><path d="M688,237 l12,12 l-3,29" fill="none" stroke="#111" stroke-width="1.2" opacity=".5"/><path d="M548,492 l18,25 l0,29" fill="none" stroke="#111" stroke-width="1.2" opacity=".5"/><path d="M513,427 l-19,30 l8,12" fill="none" stroke="#111" stroke-width="1.2" opacity=".5"/><ellipse cx="500" cy="431.0" rx="13.5" ry="17.25" fill="#d9d9d5" stroke="#111" stroke-width="1.5"/><path d="M 486.5 426.5 Q 500 408.5 513.5 426.5 L 509.0 416.0 Q 500 405.5 490.25 416.75 Z" fill="#0c0c0c"/><path d="M482.0,450.5 Q500,438.5 518.0,450.5 L513.5,516.5 L486.5,516.5 Z" fill="#333" stroke="#111" stroke-width="1.5"/><path d="M491.75,516.5 L491.0,565.25 M508.25,516.5 L509.0,565.25" stroke="#111" stroke-width="7.5" stroke-linecap="round"/><path d="M485.0,461.0 L467.75,503.75 M515.0,461.0 L533.0,500.0" stroke="#111" stroke-width="6.0" stroke-linecap="round"/><ellipse cx="630" cy="411.0" rx="13.5" ry="17.25" fill="#d9d9d5" stroke="#111" stroke-width="1.5"/><path d="M 616.5 406.5 Q 630 388.5 643.5 406.5 L 639.0 396.0 Q 630 385.5 620.25 396.75 Z" fill="#0c0c0c"/><path d="M612.0,430.5 Q630,418.5 648.0,430.5 L643.5,496.5 L616.5,496.5 Z" fill="#555" stroke="#111" stroke-width="1.5"/><path d="M621.75,496.5 L621.0,545.25 M638.25,496.5 L639.0,545.25" stroke="#111" stroke-width="7.5" stroke-linecap="round"/><path d="M615.0,441.0 L597.75,483.75 M645.0,441.0 L663.0,480.0" stroke="#111" stroke-width="6.0" stroke-linecap="round"/><ellipse cx="760" cy="431.0" rx="13.5" ry="17.25" fill="#d9d9d5" stroke="#111" stroke-width="1.5"/><path d="M 746.5 426.5 Q 760 408.5 773.5 426.5 L 769.0 416.0 Q 760 405.5 750.25 416.75 Z" fill="#0c0c0c"/><path d="M742.0,450.5 Q760,438.5 778.0,450.5 L773.5,516.5 L746.5,516.5 Z" fill="#777" stroke="#111" stroke-width="1.5"/><path d="M751.75,516.5 L751.0,565.25 M768.25,516.5 L769.0,565.25" stroke="#111" stroke-width="7.5" stroke-linecap="round"/><path d="M745.0,461.0 L727.75,503.75 M775.0,461.0 L793.0,500.0" stroke="#111" stroke-width="6.0" stroke-linecap="round"/><rect x="95" y="130" width="1010" height="460" fill="url(#hatch)" opacity=".16"/></svg>