<svg xmlns="http://www.w3.org/2000/svg" viewBox="0 0 1200 700" role="img" aria-label="临时体育馆"><defs><pattern id="dots" width="8" height="8" patternUnits="userSpaceOnUse"><circle cx="1" cy="1" r="1" fill="#111" opacity=".18"/></pattern><pattern id="hatch" width="9" height="9" patternUnits="userSpaceOnUse" patternTransform="rotate(24)"><line x1="0" y1="0" x2="0" y2="9" stroke="#111" stroke-width="1" opacity=".23"/></pattern><linearGradient id="fade" x1="0" y1="0" x2="0" y2="1"><stop offset="0" stop-color="#f2f2ef"/><stop offset="1" stop-color="#c8c8c2"/></linearGradient><filter id="rough"><feTurbulence baseFrequency="0.9" numOctaves="2" seed="3" type="fractalNoise" result="n"/><feDisplacementMap in="SourceGraphic" in2="n" scale="0.7"/></filter></defs><rect width="1200" height="700" fill="#e9e9e4"/><rect x="20" y="20" width="1160" height="660" fill="none" stroke="#111" stroke-width="2" opacity=".6"/><polygon points="95,590 1105,590 980,690 220,690" fill="#d7d7d2" stroke="#111" stroke-width="2"/><polygon points="95,130 1105,130 1105,590 95,590" fill="#efefe9" stroke="#111" stroke-width="2"/><rect x="110" y="160" width="300" height="210" fill="#bfc1be" stroke="#111" stroke-width="5"/><line x1="260" y1="160" x2="260" y2="370" stroke="#111" stroke-width="3"/><line x1="110" y1="265" x2="410" y2="265" stroke="#111" stroke-width="3"/><rect x="780" y="180" width="250" height="390" fill="#d6d6d1" stroke="#111" stroke-width="5"/><rect x="825" y="235" width="160" height="95" fill="#b7bab7" stroke="#111" stroke-width="3"/><path d="M813,172 l13,13 l1,16" fill="none" stroke="#111" stroke-width="1.2" opacity=".5"/><path d="M522,327 l13,19 l3,14" fill="none" stroke="#111" stroke-width="1.2" opacity=".5"/><path d="M729,283 l-14,18 l-2,20" fill="none" stroke="#111" stroke-width="1.2" opacity=".5"/><path d="M394,205 l0,19 l-15,28" fill="none" stroke="#111" stroke-width="1.2" opacity=".5"/><path d="M752,253 l-16,16 l-12,27" fill="none" stroke="#111" stroke-width="1.2" opacity=".5"/><path d="M586,348 l-16,35 l-12,23" fill="none" stroke="#111" stroke-width="1.2" opacity=".5"/><path d="M137,200 l17,33 l-2,22" fill="none" stroke="#111" stroke-width="1.2" opacity=".5"/><path d="M570,487 l-1,28 l14,26" fill="none" stroke="#111" stroke-width="1.2" opacity=".5"/><path d="M973,231 l20,23 l-8,27" fill="none" stroke="#111" stroke-width="1.2" opacity=".5"/><path d="M710,524 l-14,35 l-9,22" fill="none" stroke="#111" stroke-width="1.2" opacity=".5"/><path d="M316,220 l-12,30 l0,13" fill="none" stroke="#111" stroke-width="1.2" opacity=".5"/><path d="M680,511 l9,10 l15,24" fill="none" stroke="#111" stroke-width="1.2" opacity=".5"/><rect x="95" y="130" width="1010" height="460" fill="url(#hatch)" opacity=".16"/></svg>